<svg width="250" height="51" viewBox="0 0 250 51" fill="none" xmlns="http://www.w3.org/2000/svg">
    <path d="M63.6 32.8C63.6 33.8133 63.7467 34.6 64.04 35.16C64.36 35.6933 64.76 35.96 65.24 35.96C65.5067 35.96 65.76 35.9467 66 35.92C66.24 35.8667 66.48 35.84 66.72 35.84C66.9867 35.84 67.2133 35.9733 67.4 36.24C67.6133 36.5067 67.72 36.8 67.72 37.12C67.72 37.76 67.4133 38.2667 66.8 38.64C66.2133 38.9867 65.4133 39.16 64.4 39.16C63.68 39.16 62.9467 38.9467 62.2 38.52C61.48 38.0667 60.88 37.3733 60.4 36.44C59.92 35.48 59.68 34.2933 59.68 32.88C59.68 29.84 59.7333 27.2667 59.84 25.16C59.9733 22.6533 60.04 19.4933 60.04 15.68C60.04 14.48 60.1067 13.64 60.24 13.16C60.4 12.7867 60.6533 12.5067 61 12.32C61.3733 12.1067 61.76 12 62.16 12C62.56 12 62.9067 12.0667 63.2 12.2C63.52 12.3333 63.7333 12.5467 63.84 12.84C63.9467 13.16 64.0133 13.48 64.04 13.8C64.0933 14.0933 64.12 14.52 64.12 15.08C64.12 16.1733 64.08 17.2267 64 18.24C63.9467 19.4667 63.92 20.36 63.92 20.92C63.7067 25.6133 63.6 29.5733 63.6 32.8ZM70.1281 30.52C70.1281 29.5067 70.3148 28.4933 70.6881 27.48C71.0615 26.44 71.5548 25.4933 72.1681 24.64C72.7815 23.7867 73.7548 23.0933 75.0881 22.56C76.4215 22 77.6081 21.72 78.6481 21.72C79.7148 21.72 80.7948 21.8667 81.8881 22.16C83.0081 22.4533 83.7815 22.9067 84.2081 23.52C85.1948 24.9067 85.6881 26.2667 85.6881 27.6C85.6881 28.32 85.5281 28.9333 85.2081 29.44C84.9148 29.9467 84.4881 30.4933 83.9281 31.08C83.4748 31.56 82.7548 31.88 81.7681 32.04C80.8081 32.2 79.8481 32.28 78.8881 32.28C78.2748 32.28 77.5281 32.2267 76.6481 32.12C75.7681 31.9867 74.9148 31.8267 74.0881 31.64C74.1415 32.1733 74.2748 32.6933 74.4881 33.2C74.7015 33.7067 74.9548 34.0933 75.2481 34.36C75.7815 34.8667 76.3281 35.1867 76.8881 35.32C77.4748 35.4533 78.2215 35.52 79.1281 35.52C80.0881 35.52 80.9815 35.36 81.8081 35.04C82.4748 34.8 83.0215 34.68 83.4481 34.68C83.9548 34.68 84.3415 34.84 84.6081 35.16C84.8748 35.4533 85.0081 35.84 85.0081 36.32C85.0081 36.9867 84.6215 37.5333 83.8481 37.96C83.0748 38.3867 82.1815 38.7067 81.1681 38.92C80.1815 39.1067 79.3815 39.2 78.7681 39.2C77.5148 39.2 76.3015 38.9733 75.1281 38.52C73.9548 38.0667 72.9815 37.4267 72.2081 36.6C71.5681 35.8533 71.0615 34.96 70.6881 33.92C70.3148 32.8533 70.1281 31.72 70.1281 30.52ZM78.8481 25.12C78.2615 25.12 77.6748 25.24 77.0881 25.48C76.5015 25.6933 76.0215 26 75.6481 26.4C75.1681 26.9067 74.8348 27.32 74.6481 27.64C74.4881 27.9333 74.3815 28.3467 74.3281 28.88C74.9948 29.0933 76.3815 29.2 78.4881 29.2C79.6348 29.2 80.5148 29.0267 81.1281 28.68C81.7681 28.3333 82.0881 27.88 82.0881 27.32C82.0881 26.76 81.7415 26.2533 81.0481 25.8C80.3548 25.3467 79.6215 25.12 78.8481 25.12ZM100.711 30.36C100.924 30.4933 101.337 30.7467 101.951 31.12C102.591 31.4667 103.017 31.88 103.231 32.36C103.444 32.84 103.551 33.5067 103.551 34.36C103.551 35.32 103.271 36.1733 102.711 36.92C102.151 37.64 101.431 38.2 100.551 38.6C99.9373 38.8667 99.2706 39.0267 98.5506 39.08C97.8573 39.1333 97.0173 39.16 96.0306 39.16C95.4973 39.16 94.804 39.08 93.9506 38.92C93.124 38.76 92.5506 38.6133 92.2306 38.48C91.3773 38 90.6573 37.44 90.0706 36.8C89.484 36.16 89.1906 35.5067 89.1906 34.84C89.1906 34.3067 89.364 33.88 89.7106 33.56C90.0573 33.24 90.5106 33.08 91.0706 33.08C91.364 33.08 91.644 33.16 91.9106 33.32C92.204 33.4533 92.404 33.6133 92.5106 33.8C92.804 34.4933 93.2973 35.0133 93.9906 35.36C94.684 35.7067 95.3906 35.88 96.1106 35.88C98.644 35.88 99.9106 35.4267 99.9106 34.52C99.9106 34.28 99.844 34.0933 99.7106 33.96C99.604 33.8 99.444 33.64 99.2306 33.48C98.884 33.24 98.3906 32.9867 97.7506 32.72C97.1373 32.4533 96.5906 32.2533 96.1106 32.12C95.0173 31.88 93.9506 31.52 92.9106 31.04C91.9506 30.56 91.164 29.9333 90.5506 29.16C89.9373 28.36 89.6306 27.3867 89.6306 26.24C89.6306 25.5467 89.884 24.8667 90.3906 24.2C90.924 23.5067 91.5373 22.9867 92.2306 22.64C92.7106 22.4533 93.4973 22.2533 94.5906 22.04C95.684 21.8267 96.4306 21.72 96.8306 21.72C97.444 21.72 98.1106 21.7867 98.8306 21.92C99.5506 22.0267 100.097 22.2133 100.471 22.48C101.191 22.9067 101.777 23.36 102.231 23.84C102.684 24.2933 102.911 24.8133 102.911 25.4C102.911 25.6933 102.844 26.0133 102.711 26.36C102.577 26.68 102.417 26.88 102.231 26.96C101.831 27.1467 101.364 27.24 100.831 27.24C100.591 27.24 100.391 27.1733 100.231 27.04C100.097 26.9067 99.9106 26.6933 99.6706 26.4C99.3773 25.9467 99.0973 25.68 98.8306 25.6C98.5106 25.52 98.044 25.4267 97.4306 25.32C96.8173 25.1867 96.404 25.12 96.1906 25.12C95.524 25.12 94.884 25.2533 94.2706 25.52C93.684 25.7867 93.3906 26.1467 93.3906 26.6C93.3906 27.1333 93.8306 27.5867 94.7106 27.96C95.2706 28.2267 95.884 28.4533 96.5506 28.64C97.244 28.8267 97.6706 28.9467 97.8306 29C98.204 29.08 98.684 29.2667 99.2706 29.56C99.884 29.8533 100.364 30.12 100.711 30.36ZM106.923 29.84C106.923 28.2133 107.283 26.8667 108.003 25.8C108.723 24.7067 109.723 23.68 111.003 22.72C111.376 22.4533 112.003 22.2267 112.883 22.04C113.763 21.8267 114.536 21.72 115.203 21.72C116.003 21.72 116.843 21.8933 117.723 22.24C118.63 22.56 119.363 22.9333 119.923 23.36C120.91 24.08 121.59 24.92 121.963 25.88C122.336 26.8133 122.523 27.9333 122.523 29.24C122.523 29.8 122.203 30.3467 121.563 30.88C120.95 31.3867 120.283 31.64 119.563 31.64L118.043 31.6C117.27 31.6 116.163 31.6267 114.723 31.68L113.883 31.72C113.296 31.7733 112.856 31.8 112.563 31.8C112.136 31.8 111.55 31.7467 110.803 31.64C110.91 32.8933 111.376 33.88 112.203 34.6C113.03 35.2933 113.923 35.64 114.883 35.64C116.563 35.64 117.736 35.3067 118.403 34.64C118.963 34.24 119.336 33.9867 119.523 33.88C119.71 33.7733 120.003 33.72 120.403 33.72C120.83 33.72 121.203 33.92 121.523 34.32C121.843 34.72 122.003 35.12 122.003 35.52C122.003 35.9733 121.723 36.44 121.163 36.92C120.63 37.3733 119.896 37.8533 118.963 38.36C118.456 38.5733 117.763 38.76 116.883 38.92C116.003 39.08 115.27 39.16 114.683 39.16C113.75 39.16 112.71 38.8933 111.563 38.36C110.416 37.8 109.563 37.1867 109.003 36.52C108.443 35.8533 107.95 34.9067 107.523 33.68C107.123 32.4533 106.923 31.1733 106.923 29.84ZM114.883 28.76C116.776 28.76 118.163 28.6933 119.043 28.56C118.99 27.7867 118.75 27.16 118.323 26.68C117.896 26.1733 117.31 25.7467 116.563 25.4C116.323 25.2933 116.11 25.2133 115.923 25.16C115.736 25.1067 115.523 25.08 115.283 25.08C114.056 25.08 113.016 25.4133 112.163 26.08C111.336 26.7467 110.843 27.6 110.683 28.64C112.016 28.72 113.416 28.76 114.883 28.76ZM144.548 35.92C144.681 35.9733 144.894 36.04 145.188 36.12C145.481 36.2 145.694 36.28 145.828 36.36C145.961 36.44 146.028 36.56 146.028 36.72C146.054 37.36 145.814 37.8933 145.307 38.32C144.828 38.72 144.254 38.92 143.588 38.92C142.548 38.92 141.734 38.64 141.148 38.08C140.561 37.52 140.134 36.6667 139.868 35.52C139.761 35.0667 139.708 34.44 139.708 33.64C139.708 33.1867 139.734 32.4533 139.788 31.44C139.841 30.3733 139.868 29.52 139.868 28.88C139.868 27.7333 139.748 26.8667 139.508 26.28C139.268 25.6667 138.694 25.36 137.788 25.36C136.854 25.36 136.014 25.7333 135.268 26.48C134.548 27.2267 133.934 28.3467 133.428 29.84C132.734 31.92 132.348 34.68 132.268 38.12C132.268 38.3067 132.068 38.5333 131.668 38.8C131.294 39.04 130.841 39.16 130.308 39.16C129.321 39.16 128.708 38.64 128.468 37.6L128.428 36.92C128.428 36.68 128.454 36.4 128.508 36.08C128.828 34.2133 128.988 32.5867 128.988 31.2C128.988 30.5867 128.974 30.1067 128.948 29.76L128.908 27.88C128.908 27.24 128.748 26.6267 128.428 26.04C128.108 25.4267 127.734 25.12 127.308 25.12C127.174 25.12 126.988 25.1733 126.748 25.28C126.508 25.36 126.308 25.4 126.148 25.4C125.881 25.4 125.588 25.2667 125.268 25C124.974 24.7333 124.828 24.4533 124.828 24.16C124.828 23.6 125.014 23.1467 125.388 22.8C125.788 22.48 126.174 22.2267 126.548 22.04C126.948 21.8533 127.401 21.76 127.908 21.76C128.334 21.76 128.681 21.8 128.948 21.88C129.214 21.96 129.574 22.1333 130.028 22.4C130.294 22.5333 130.601 22.9067 130.948 23.52C131.294 24.1333 131.561 25 131.748 26.12C132.281 25.1333 133.174 24.0933 134.428 23C135.361 22.1467 136.708 21.72 138.468 21.72C140.068 21.72 141.334 22.3067 142.268 23.48C143.201 24.6267 143.668 26.2133 143.668 28.24C143.668 28.64 143.641 29.2933 143.588 30.2C143.508 30.92 143.468 31.68 143.468 32.48C143.468 34.3467 143.828 35.4933 144.548 35.92ZM148.683 29.96C148.683 29 148.856 28.1067 149.203 27.28C149.549 26.4267 150.056 25.5467 150.723 24.64C151.389 23.7333 152.309 23.0267 153.483 22.52C154.656 21.9867 155.936 21.72 157.323 21.72C158.389 21.72 159.416 21.9467 160.403 22.4C161.416 22.8267 162.323 23.36 163.123 24C163.229 24.1867 163.416 24.5333 163.683 25.04C163.949 25.52 164.136 25.96 164.243 26.36C164.376 26.76 164.443 27.1733 164.443 27.6C164.443 29.3867 163.789 30.5867 162.483 31.2C161.176 31.7867 159.523 32.08 157.523 32.08C155.523 32.08 153.896 31.9467 152.643 31.68C152.696 32.1867 152.829 32.6933 153.043 33.2C153.256 33.7067 153.509 34.0933 153.803 34.36C154.336 34.8667 154.856 35.2 155.363 35.36C155.896 35.4933 156.603 35.56 157.483 35.56C158.816 35.56 159.856 35.3067 160.603 34.8C161.296 34.3467 161.829 34.12 162.203 34.12C162.709 34.12 163.096 34.28 163.363 34.6C163.629 34.8933 163.763 35.28 163.763 35.76C163.763 36.7733 163.109 37.6 161.803 38.24C160.523 38.88 159.069 39.2 157.443 39.2C156.163 39.2 154.896 38.9733 153.643 38.52C152.389 38.0667 151.389 37.4267 150.643 36.6C150.136 35.7467 149.683 34.7067 149.283 33.48C148.883 32.2533 148.683 31.08 148.683 29.96ZM157.483 25C156.896 25 156.283 25.1067 155.643 25.32C155.029 25.5067 154.549 25.8 154.203 26.2C153.776 26.6533 153.456 27.0667 153.243 27.44C153.056 27.8133 152.936 28.28 152.883 28.84C153.176 28.84 153.456 28.8533 153.723 28.88C153.989 28.9067 154.243 28.9333 154.483 28.96C155.656 29.0667 156.536 29.12 157.123 29.12C158.296 29.12 159.189 28.9467 159.803 28.6C160.443 28.2533 160.763 27.7867 160.763 27.2C160.763 26.64 160.403 26.1333 159.683 25.68C158.989 25.2267 158.256 25 157.483 25ZM172.78 32.8C172.78 33.8133 172.926 34.6 173.22 35.16C173.54 35.6933 173.94 35.96 174.42 35.96C174.686 35.96 174.94 35.9467 175.18 35.92C175.42 35.8667 175.66 35.84 175.9 35.84C176.166 35.84 176.393 35.9733 176.58 36.24C176.793 36.5067 176.9 36.8 176.9 37.12C176.9 37.76 176.593 38.2667 175.98 38.64C175.393 38.9867 174.593 39.16 173.58 39.16C172.86 39.16 172.126 38.9467 171.38 38.52C170.66 38.0667 170.06 37.3733 169.58 36.44C169.1 35.48 168.86 34.2933 168.86 32.88C168.86 29.84 168.913 27.2667 169.02 25.16C169.153 22.6533 169.22 19.4933 169.22 15.68C169.22 14.48 169.286 13.64 169.42 13.16C169.58 12.7867 169.833 12.5067 170.18 12.32C170.553 12.1067 170.94 12 171.34 12C171.74 12 172.086 12.0667 172.38 12.2C172.7 12.3333 172.913 12.5467 173.02 12.84C173.126 13.16 173.193 13.48 173.22 13.8C173.273 14.0933 173.3 14.52 173.3 15.08C173.3 16.1733 173.26 17.2267 173.18 18.24C173.126 19.4667 173.1 20.36 173.1 20.92C172.886 25.6133 172.78 29.5733 172.78 32.8ZM181.668 13.32C182.601 13.4 183.414 13.6533 184.108 14.08C184.801 14.48 185.148 15.0933 185.148 15.92C185.148 16.5333 184.854 17.0267 184.268 17.4C183.708 17.7467 183.028 17.92 182.228 17.92C181.454 17.92 180.921 17.72 180.628 17.32C180.334 16.92 180.188 16.5067 180.188 16.08C180.188 15.28 180.268 14.6133 180.428 14.08C180.614 13.5467 181.028 13.2933 181.668 13.32ZM184.868 31.04V32.2C184.868 33.24 184.894 34.2267 184.948 35.16C185.028 36.0667 185.121 36.9867 185.228 37.92C185.201 38.1867 185.001 38.4667 184.628 38.76C184.254 39.0267 183.921 39.16 183.628 39.16C183.121 39.16 182.601 39.0667 182.068 38.88C181.561 38.6667 181.254 38.4133 181.148 38.12C180.988 37.2667 180.908 36.5067 180.908 35.84C180.908 33.6533 180.841 31.2 180.708 28.48C180.601 26.08 180.548 24.4 180.548 23.44C180.548 22.96 180.788 22.5467 181.268 22.2C181.748 21.8533 182.254 21.68 182.788 21.68C183.561 21.68 184.094 21.8533 184.388 22.2C184.708 22.5467 184.868 23.0933 184.868 23.84V31.04ZM190.022 24.96C189.329 24.48 188.982 23.9733 188.982 23.44C188.982 23.0667 189.142 22.72 189.462 22.4C189.782 22.08 190.262 21.92 190.902 21.92C191.649 21.92 192.316 22.12 192.902 22.52C193.516 22.8933 193.942 23.44 194.182 24.16C194.796 23.44 195.489 22.8667 196.262 22.44C197.062 22.0133 197.876 21.8 198.702 21.8C199.689 21.8 200.582 22.0667 201.382 22.6C202.182 23.1333 202.582 23.8533 202.582 24.76C202.582 25.2667 202.356 25.7867 201.902 26.32C201.476 26.8533 201.036 27.12 200.582 27.12C200.342 27.12 200.129 27.0667 199.942 26.96C199.782 26.8267 199.582 26.64 199.342 26.4C199.076 26.1333 198.849 25.9467 198.662 25.84C198.476 25.7067 198.262 25.64 198.022 25.64C197.596 25.64 197.196 25.7067 196.822 25.84C196.449 25.9733 196.196 26.1333 196.062 26.32C195.636 26.9867 195.316 27.5867 195.102 28.12C194.916 28.6533 194.822 29.2267 194.822 29.84C194.822 30.2933 194.809 30.6533 194.782 30.92L194.742 33.2C194.742 33.5467 194.756 33.9333 194.782 34.36C194.809 34.7867 194.836 35.1067 194.862 35.32C194.942 36.04 194.982 36.7333 194.982 37.4C194.982 37.8533 194.809 38.2533 194.462 38.6C194.116 38.9467 193.689 39.12 193.182 39.12C192.382 39.12 191.796 38.9733 191.422 38.68C191.049 38.36 190.862 37.7867 190.862 36.96L190.822 34.4C190.796 33.8933 190.782 33.1733 190.782 32.24L190.822 29.6C190.876 28.32 190.902 27.28 190.902 26.48C190.902 26.1867 190.836 25.92 190.702 25.68C190.596 25.44 190.369 25.2 190.022 24.96ZM217.78 13.32C218.207 13.32 218.554 13.44 218.82 13.68C219.087 13.8933 219.22 14.16 219.22 14.48C219.22 14.7733 219.154 15.04 219.02 15.28C218.14 16.6667 217.38 17.96 216.74 19.16C216.1 20.36 215.3 21.92 214.34 23.84C213.967 24.5867 213.367 25.7733 212.54 27.4C212.14 28.1733 211.567 29.44 210.82 31.2C209.727 33.6533 208.834 35.52 208.14 36.8C207.314 38.4 206.367 39.2 205.3 39.2C203.94 39.2 203.26 38.72 203.26 37.76C203.26 37.3867 203.38 37.04 203.62 36.72C205.06 34.6133 206.287 32.5733 207.3 30.6C208.34 28.6 209.46 26.2667 210.66 23.6C212.02 20.56 213.167 18.1867 214.1 16.48C214.554 15.5733 215.034 14.8267 215.54 14.24C216.074 13.6267 216.82 13.32 217.78 13.32ZM221.016 25.52C220.803 25.52 220.603 25.44 220.416 25.28C220.256 25.0933 220.176 24.88 220.176 24.64C220.176 24.0267 220.443 23.4533 220.976 22.92C221.136 22.84 221.456 22.7067 221.936 22.52C222.416 22.3333 222.843 22.24 223.216 22.24C224.23 22.24 225.056 22.52 225.696 23.08C226.336 23.6133 226.656 24.3867 226.656 25.4C226.656 25.6933 226.603 26.32 226.496 27.28C226.39 28.4 226.336 29.2667 226.336 29.88C226.336 31.7467 226.59 33.2533 227.096 34.4C227.283 34.7733 227.576 35.0667 227.976 35.28C228.376 35.4933 228.736 35.6 229.056 35.6C229.83 35.6 230.456 35.4667 230.936 35.2C231.416 34.9333 231.936 34.5067 232.496 33.92C233.056 33.3333 233.416 32.6667 233.576 31.92C233.763 31.1733 233.896 30.1467 233.976 28.84C234.03 27.9867 234.083 27.36 234.136 26.96C234.27 25.68 234.336 24.5867 234.336 23.68C234.336 23.0933 234.496 22.6133 234.816 22.24C235.136 21.84 235.576 21.64 236.136 21.64C236.456 21.64 236.816 21.7467 237.216 21.96C237.643 22.1467 237.923 22.3733 238.056 22.64C238.216 22.9067 238.296 23.3467 238.296 23.96C238.296 24.28 238.256 24.5867 238.176 24.88C237.99 25.5467 237.896 26.3467 237.896 27.28L237.936 29.36C237.936 31.2533 238.07 32.6533 238.336 33.56C238.47 33.9867 238.656 34.4267 238.896 34.88C239.136 35.3067 239.363 35.6667 239.576 35.96C240.11 36.5467 240.456 36.96 240.616 37.2C240.776 37.4133 240.856 37.6267 240.856 37.84C240.856 38.16 240.696 38.4667 240.376 38.76C240.083 39.0267 239.763 39.16 239.416 39.16C238.43 39.16 237.576 38.8267 236.856 38.16C236.136 37.4933 235.603 36.6267 235.256 35.56C234.35 36.6 233.51 37.44 232.736 38.08C232.203 38.4533 231.55 38.7333 230.776 38.92C230.003 39.08 229.23 39.16 228.456 39.16C227.416 39.16 226.363 38.7333 225.296 37.88C224.23 37.0267 223.51 36.04 223.136 34.92C223.11 34.8667 223.03 34.6533 222.896 34.28C222.79 33.9067 222.736 33.3467 222.736 32.6C222.736 31.6133 222.79 30.3733 222.896 28.88C222.976 27.92 223.016 27.04 223.016 26.24C223.016 26 222.923 25.8 222.736 25.64C222.576 25.48 222.39 25.4 222.176 25.4C222.016 25.4 221.83 25.4267 221.616 25.48C221.43 25.5067 221.23 25.52 221.016 25.52ZM245.926 13.32C246.859 13.4 247.672 13.6533 248.366 14.08C249.059 14.48 249.406 15.0933 249.406 15.92C249.406 16.5333 249.112 17.0267 248.526 17.4C247.966 17.7467 247.286 17.92 246.486 17.92C245.712 17.92 245.179 17.72 244.886 17.32C244.592 16.92 244.446 16.5067 244.446 16.08C244.446 15.28 244.526 14.6133 244.686 14.08C244.872 13.5467 245.286 13.2933 245.926 13.32ZM249.126 31.04V32.2C249.126 33.24 249.152 34.2267 249.206 35.16C249.286 36.0667 249.379 36.9867 249.486 37.92C249.486 38.24 249.299 38.5333 248.926 38.8C248.552 39.04 248.206 39.16 247.886 39.16C247.379 39.16 246.859 39.0667 246.326 38.88C245.819 38.6667 245.512 38.4133 245.406 38.12C245.246 37.2667 245.166 36.5067 245.166 35.84C245.166 33.6533 245.099 31.2 244.966 28.48C244.859 26.08 244.806 24.4 244.806 23.44C244.806 22.96 245.046 22.5467 245.526 22.2C246.006 21.8533 246.512 21.68 247.046 21.68C247.819 21.68 248.352 21.8533 248.646 22.2C248.966 22.5467 249.126 23.0933 249.126 23.84V31.04Z" fill="black"/>
    <g filter="url(#filter0_g_0_1)">
        <path d="M45.9964 40C45.9964 43.3137 43.3103 46.0352 39.9969 46.0785L9.99949 46.4712C6.68606 46.5146 4 43.8635 4 40.5498V10.5498C4 7.23605 6.68606 4.5146 9.99949 4.47123L39.9969 4.07854C43.3103 4.03516 45.9964 6.68629 45.9964 10V40Z" fill="url(#paint0_linear_0_1)"/>
    </g>
    <defs>
        <filter id="filter0_g_0_1" x="0" y="0.0780125" width="49.9964" height="50.3937" filterUnits="userSpaceOnUse" color-interpolation-filters="sRGB">
            <feFlood flood-opacity="0" result="BackgroundImageFix"/>
            <feBlend mode="normal" in="SourceGraphic" in2="BackgroundImageFix" result="shape"/>
            <feTurbulence type="fractalNoise" baseFrequency="2 2" numOctaves="3" seed="7547" />
            <feDisplacementMap in="shape" scale="8" xChannelSelector="R" yChannelSelector="G" result="displacedImage" width="100%" height="100%" />
            <feMerge result="effect1_texture_0_1">
                <feMergeNode in="displacedImage"/>
            </feMerge>
        </filter>
        <linearGradient id="paint0_linear_0_1" x1="5.96858" y1="6.49274" x2="45.9964" y2="46" gradientUnits="userSpaceOnUse">
            <stop stop-color="#FF5585"/>
            <stop offset="1" stop-color="#FF5585" stop-opacity="0.5"/>
        </linearGradient>
    </defs>
</svg>
